<svg viewBox="0 0 50 50" xmlns="http://www.w3.org/2000/svg">
  <defs>
    <style>
       text { font-family: Arial, sans-serif; font-size: 1.9px; text-anchor: middle; }
       .neuron { fill: white; stroke: lightgray; stroke-width: .8; }
       .synapse { fill: none; stroke: black; stroke-width: .8; }
       .hidden { stroke: black; }
       .positive { stroke: #d65244;}
       .negative { stroke: #9ebeff;}
    </style>
  </defs>
  <g>
    <g transform="translate(3, 0)">
      <g>
        <path style="" d="M 10.512 10.052 L 11.008 10.052 L 11.008 9.873 L 10.512 9.873 L 10.512 10.052 Z M 11.008 10.052 L 11.504 10.052 L 11.504 8.821 L 11.008 8.821 L 11.008 10.052 Z M 11.504 10.052 L 12 10.052 L 12 6.822 L 11.504 6.822 L 11.504 10.052 Z M 12 10.052 L 12.496 10.052 L 12.496 6.832 L 12 6.832 L 12 10.052 Z M 12.496 10.052 L 12.992 10.052 L 12.992 8.827 L 12.496 8.827 L 12.496 10.052 Z M 12.992 10.052 L 13.488 10.052 L 13.488 9.876 L 12.992 9.876 L 12.992 10.052 Z"></path>
        <line style="stroke: black; stroke-width: 0.2px;" x1="7" y1="10" x2="17" y2="10"></line>
        <line style="stroke: black; stroke-width: 0.1px" x1="12" y1="10.5" x2="12" y2="10"></line>
        <text x="12" y="12.5">0</text>
      </g>
      <g>
        <path style="" d="M 24.636 10.042 L 25 10.042 L 25 1.4 L 24.636 1.4 L 24.636 10.042 Z M 25 10.042 L 25.364 10.042 L 25.364 9.822 L 25 9.822 L 25 10.042 Z"></path>
        <line style="stroke: black; stroke-width: 0.2px;" x1="20" y1="10" x2="30" y2="10"></line>
        <line style="stroke: black; stroke-width: 0.1px" x1="25" y1="10.5" x2="25" y2="10"></line>
        <text x="25" y="12.5">0</text>
      </g>
      <g>
        <path style="" d="M 37.872 10.122 L 38 10.122 L 38 4 L 37.872 4 L 37.872 10.122 Z M 38 10.122 L 38.126 10.122 L 38.126 7.48 L 38 7.48 L 38 10.122 Z M 38.126 10.122 L 38.254 10.122 L 38.254 9.964 L 38.126 9.964 L 38.126 10.122 Z M 38.254 10.122 L 38.38 10.122 L 38.38 10.09 L 38.254 10.09 L 38.254 10.122 Z"></path>
        <line style="stroke: black; stroke-width: 0.2px;" x1="33" y1="10" x2="43" y2="10"></line>
        <line style="stroke: black; stroke-width: 0.1px" x1="38" y1="10.5" x2="38" y2="10"></line>
        <text x="38" y="12.5">0</text>
      </g>
    </g>
    <g>
      <g>
        <path style="fill: lightgray;" d="M 4.995 19.091 L 5.283 19.091 L 5.283 19.068 L 4.995 19.068 L 4.995 19.091 Z M 5.283 19.091 L 5.57 19.091 L 5.57 18.828 L 5.283 18.828 L 5.283 19.091 Z M 5.57 19.091 L 5.857 19.091 L 5.857 17.975 L 5.57 17.975 L 5.57 19.091 Z M 5.857 19.091 L 6.144 19.091 L 6.144 17.273 L 5.857 17.273 L 5.857 19.091 Z M 6.144 19.091 L 6.431 19.091 L 6.431 17.975 L 6.144 17.975 L 6.144 19.091 Z M 6.431 19.091 L 6.718 19.091 L 6.718 18.83 L 6.431 18.83 L 6.431 19.091 Z M 6.718 19.091 L 7.005 19.091 L 7.005 19.067 L 6.718 19.067 L 6.718 19.091 Z"></path>
        <line style="stroke: lightgray; stroke-width: 0.1px;" x1="4" y1="19.098" x2="8" y2="19.098"></line>
      </g>
      <g>
        <rect y="30" width="1.5" height="1.5" style="fill: rgb(179, 3, 38);" x="4.5"></rect>
        <rect x="6" y="30" width="1.5" height="1.5" style="fill: rgb(220, 220, 221);"></rect>
        <rect y="31.5" width="1.5" height="1.5" style="fill: rgb(220, 220, 221);" x="4.5"></rect>
        <rect x="6" y="31.5" width="1.5" height="1.5" style="fill: rgb(179, 3, 38);"></rect>
      </g>
    </g>
    <g transform="translate(3, 0)">
      <polyline points="17,34 9,22 17,22 9,28 17,16" class="synapse positive"></polyline>
      <polyline points="17,16 9,22 17,28 9,28 17,34" class="synapse negative"></polyline>
      <circle cx="9" cy="22" r="2" class="neuron"></circle>
      <circle cx="9" cy="28" r="2" class="neuron"></circle>
      <polyline points="17,16 25,19 17,22 25,25 17,28 25,31 17,34" class="synapse positive"></polyline>
      <polyline points="17,16 25,25 17,34 25,31 17,22 25,19 17,28" class="synapse positive"></polyline>
      <circle cx="17" cy="16" r="2" class="hidden neuron"></circle>
      <circle cx="17" cy="22" r="2" class="hidden neuron"></circle>
      <circle cx="17" cy="28" r="2" class="hidden neuron"></circle>
      <circle cx="17" cy="34" r="2" class="hidden neuron"></circle>
      <polyline points="33,16 25,19 33,22 25,25 33,28 25,31 33,34" class="synapse positive"></polyline>
      <polyline points="33,16 25,25 33,34 25,31 33,22 25,19 33,28" class="synapse positive"></polyline>
      <circle cx="25" cy="19" r="2" class="hidden neuron"></circle>
      <circle cx="25" cy="25" r="2" class="hidden neuron"></circle>
      <circle cx="25" cy="31" r="2" class="hidden neuron"></circle>
      <polyline points="33,16 41,25 33,28" class="synapse positive"></polyline>
      <polyline points="33,22 41,25 33,34" class="synapse positive"></polyline>
      <circle cx="33" cy="16" r="2" class="hidden neuron"></circle>
      <circle cx="33" cy="22" r="2" class="hidden neuron"></circle>
      <circle cx="33" cy="28" r="2" class="hidden neuron"></circle>
      <circle cx="33" cy="34" r="2" class="hidden neuron"></circle>
      <circle cx="41" cy="25" r="2" class="neuron"></circle>
    </g>
    <g transform="translate(3, 0)">
      <g>
        <rect x="8" y="38" width="2" height="2" style="fill: rgb(179, 3, 38);"></rect>
        <rect x="10" y="38" width="2" height="2" style="fill: rgb(221, 220, 219);"></rect>
        <rect x="12" y="38" width="2" height="2" style="fill: rgb(220, 220, 221);"></rect>
        <rect x="14" y="38" width="2" height="2" style="fill: rgb(220, 220, 221);"></rect>
        <rect x="8" y="40" width="2" height="2" style="fill: rgb(221, 220, 219);"></rect>
        <rect x="10" y="40" width="2" height="2" style="fill: rgb(179, 3, 38);"></rect>
        <rect x="12" y="40" width="2" height="2" style="fill: rgb(221, 220, 219);"></rect>
        <rect x="14" y="40" width="2" height="2" style="fill: rgb(223, 219, 217);"></rect>
        <rect x="8" y="42" width="2" height="2" style="fill: rgb(220, 220, 221);"></rect>
        <rect x="10" y="42" width="2" height="2" style="fill: rgb(221, 220, 219);"></rect>
        <rect x="12" y="42" width="2" height="2" style="fill: rgb(179, 3, 38);"></rect>
        <rect x="14" y="42" width="2" height="2" style="fill: rgb(220, 220, 221);"></rect>
        <rect x="8" y="44" width="2" height="2" style="fill: rgb(220, 220, 221);"></rect>
        <rect x="10" y="44" width="2" height="2" style="fill: rgb(223, 219, 217);"></rect>
        <rect x="12" y="44" width="2" height="2" style="fill: rgb(220, 220, 221);"></rect>
        <rect x="14" y="44" width="2" height="2" style="fill: rgb(179, 3, 38);"></rect>
      </g>
      <g>
        <rect x="22" y="39" width="2" height="2" style="fill: rgb(179, 3, 38);"></rect>
        <rect x="24" y="39" width="2" height="2" style="fill: rgb(232, 213, 202);"></rect>
        <rect x="26" y="39" width="2" height="2" style="fill: rgb(230, 215, 207);"></rect>
        <rect x="22" y="41" width="2" height="2" style="fill: rgb(232, 213, 202);"></rect>
        <rect x="24" y="41" width="2" height="2" style="fill: rgb(179, 3, 38);"></rect>
        <rect x="26" y="41" width="2" height="2" style="fill: rgb(229, 216, 208);"></rect>
        <rect x="22" y="43" width="2" height="2" style="fill: rgb(230, 215, 207);"></rect>
        <rect x="24" y="43" width="2" height="2" style="fill: rgb(229, 216, 208);"></rect>
        <rect x="26" y="43" width="2" height="2" style="fill: rgb(179, 3, 38);"></rect>
      </g>
      <g>
        <rect x="34" y="38" width="2" height="2" style="fill: rgb(179, 3, 38);"></rect>
        <rect x="36" y="38" width="2" height="2" style="fill: rgb(246, 188, 162);"></rect>
        <rect x="38" y="38" width="2" height="2" style="fill: rgb(246, 183, 156);"></rect>
        <rect x="40" y="38" width="2" height="2" style="fill: rgb(246, 185, 157);"></rect>
        <rect x="34" y="40" width="2" height="2" style="fill: rgb(246, 188, 162);"></rect>
        <rect x="36" y="40" width="2" height="2" style="fill: rgb(179, 3, 38);"></rect>
        <rect x="38" y="40" width="2" height="2" style="fill: rgb(246, 187, 160);"></rect>
        <rect x="40" y="40" width="2" height="2" style="fill: rgb(246, 188, 162);"></rect>
        <rect x="34" y="42" width="2" height="2" style="fill: rgb(246, 183, 156);"></rect>
        <rect x="36" y="42" width="2" height="2" style="fill: rgb(246, 187, 160);"></rect>
        <rect x="38" y="42" width="2" height="2" style="fill: rgb(179, 3, 38);"></rect>
        <rect x="40" y="42" width="2" height="2" style="fill: rgb(246, 186, 159);"></rect>
        <rect x="34" y="44" width="2" height="2" style="fill: rgb(246, 185, 157);"></rect>
        <rect x="36" y="44" width="2" height="2" style="fill: rgb(246, 188, 162);"></rect>
        <rect x="38" y="44" width="2" height="2" style="fill: rgb(246, 186, 159);"></rect>
        <rect x="40" y="44" width="2" height="2" style="fill: rgb(179, 3, 38);"></rect>
      </g>
    </g>
  </g>
</svg>
